<svg width="616" height="757" viewBox="0 0 616 757" fill="none" xmlns="http://www.w3.org/2000/svg">
<path fill-rule="evenodd" clip-rule="evenodd" d="M354.169 18.6315C431.219 12.723 526.335 -26.4918 579.992 30.5454C635.544 89.5967 583.994 188.712 591.075 270.46C596.022 327.572 620.863 379.396 615.153 436.433C608.148 506.404 598.987 578.969 554.806 632.756C503.516 695.198 433.271 745.107 354.169 754.161C270.602 763.725 180.002 741.163 118.139 682.734C58.7684 626.659 57.3257 535.257 37.4428 455.016C19.0969 380.977 -14.474 306.846 6.8626 233.657C28.4239 159.696 87.1867 103.282 151.61 63.396C212.229 25.8655 283.565 24.0458 354.169 18.6315Z" fill="#182A88"/>
</svg>
