<svg width="616" height="495" viewBox="0 0 616 495" fill="none" xmlns="http://www.w3.org/2000/svg">
<path fill-rule="evenodd" clip-rule="evenodd" d="M289.215 4.05251C352.452 -11.1431 420.589 18.9773 473.169 51.5277C525.11 83.6828 554.512 132.316 577.177 182.319C600.767 234.363 632.996 292.46 605.352 343.146C578.081 393.149 499.323 403.212 441.624 430.862C391.147 455.05 347.689 494.332 289.215 494.637C230.607 494.942 174.375 468.316 135.39 432.458C100.423 400.295 111.457 351.39 90.5233 311.879C66.0132 265.617 -17.0428 230.466 3.12733 182.818C23.4341 134.847 120.609 155.196 169.884 124.406C221.303 92.2758 227.162 18.9635 289.215 4.05251Z" fill="#182A88"/>
</svg>
