<svg width="616" height="630" viewBox="0 0 616 630" fill="none" xmlns="http://www.w3.org/2000/svg">
<path fill-rule="evenodd" clip-rule="evenodd" d="M289.718 5.1583C352.858 -14.1837 420.889 24.1556 473.389 65.5879C525.25 106.517 554.607 168.42 577.237 232.068C600.791 298.312 632.97 372.262 605.369 436.779C578.14 500.426 499.503 513.235 441.892 548.429C391.493 579.217 348.102 629.218 289.718 629.606C231.2 629.995 175.054 596.104 136.13 550.461C101.216 509.522 3.36773 381.899 68.2762 342.1C43.8038 283.215 -16.0687 293.353 4.07042 232.703C24.346 171.643 121.371 197.544 170.57 158.352C221.911 117.455 227.761 24.138 289.718 5.1583Z" fill="#182A88"/>
</svg>
