<svg width="616" height="890" viewBox="0 0 616 890" fill="none" xmlns="http://www.w3.org/2000/svg">
<path fill-rule="evenodd" clip-rule="evenodd" d="M402.322 21.9096C465.202 14.9615 542.825 -31.1529 586.614 35.9197C631.95 105.361 589.88 221.915 595.659 318.045C599.696 385.206 619.968 446.149 615.309 513.221C609.592 595.503 602.116 680.835 566.06 744.085C524.203 817.514 466.876 876.204 402.322 886.851C334.124 898.098 260.186 871.567 209.7 802.858C161.248 736.916 17.5657 682.409 1.33938 588.05C-13.6325 500.986 101.475 360.834 118.888 274.767C136.484 187.794 184.44 121.454 237.015 74.5501C286.485 30.4164 344.703 28.2765 402.322 21.9096Z" fill="#182A88"/>
</svg>
