<svg width="616" height="399" viewBox="0 0 616 399" fill="none" xmlns="http://www.w3.org/2000/svg">
<path fill-rule="evenodd" clip-rule="evenodd" d="M289.215 3.26377C352.452 -8.97434 420.589 15.2837 473.169 41.4988C525.11 67.3955 554.512 106.563 577.177 146.834C600.767 188.748 632.996 235.538 605.352 276.359C578.081 316.63 499.323 324.735 441.624 347.003C391.147 366.483 347.689 398.12 289.215 398.365C230.607 398.611 174.375 377.167 135.39 348.288C100.423 322.385 111.457 282.999 90.5233 251.178C66.0132 213.92 -17.0428 185.61 3.12733 147.236C23.4341 108.602 120.609 124.99 169.884 100.193C221.303 74.3161 227.162 15.2726 289.215 3.26377Z" fill="#182A88"/>
</svg>
