<svg width="616" height="688" viewBox="0 0 616 688" fill="none" xmlns="http://www.w3.org/2000/svg">
<path fill-rule="evenodd" clip-rule="evenodd" d="M289.215 5.63C352.452 -15.4807 420.589 26.3645 473.169 71.5855C525.11 116.257 554.512 183.821 577.177 253.289C600.767 325.591 632.996 406.303 605.352 476.72C578.081 546.186 499.323 560.168 441.624 598.579C391.147 632.183 347.689 686.756 289.215 687.18C230.607 687.604 174.375 650.614 135.39 600.798C100.423 556.114 111.457 488.173 90.5233 433.281C66.0132 369.012 -17.0428 320.178 3.12733 253.982C23.4341 187.338 120.609 215.608 169.884 172.833C221.303 128.195 227.162 26.3453 289.215 5.63Z" fill="#182A88"/>
</svg>
